<?xml version="1.0" standalone="no"?>
<!DOCTYPE svg PUBLIC "-//W3C//DTD SVG 20010904//EN"
 "http://www.w3.org/TR/2001/REC-SVG-20010904/DTD/svg10.dtd">
<svg version="1.0" xmlns="http://www.w3.org/2000/svg"
 width="500.000000pt" height="500.000000pt" viewBox="0 0 500.000000 500.000000"
 preserveAspectRatio="xMidYMid meet">
<metadata>
Created by potrace 1.14, written by Peter Selinger 2001-2017
</metadata>
<g transform="translate(0.000000,500.000000) scale(0.100000,-0.100000)"
fill="#000000" stroke="none">
<path d="M3642 4802 c-94 -338 -132 -451 -196 -580 -35 -70 -73 -155 -84 -189
-93 -273 -1 -513 241 -633 70 -35 93 -41 159 -44 152 -7 254 30 354 129 94 92
139 198 143 330 3 100 -25 181 -104 300 -67 101 -70 111 -80 240 -13 176 -18
224 -24 259 l-6 40 -70 -81 c-39 -45 -74 -82 -80 -82 -5 0 -34 61 -64 137 -81
206 -123 306 -135 319 -8 9 -22 -28 -54 -145z"/>
<path d="M2098 4375 c-2 -2 -32 -5 -68 -8 -301 -25 -482 -142 -605 -391 -64
-130 -135 -341 -160 -475 -16 -83 -17 -104 -6 -170 7 -41 24 -106 38 -143 l25
-68 -47 -42 c-239 -211 -451 -556 -609 -991 -55 -152 -131 -429 -151 -549 -3
-18 -12 -69 -20 -113 -7 -44 -17 -107 -21 -140 -3 -33 -8 -67 -9 -75 -2 -8 -6
-44 -10 -80 -3 -36 -9 -73 -11 -82 -5 -17 48 -18 1021 -18 812 0 1026 -3 1030
-12 2 -7 35 -116 73 -243 l69 -229 524 -263 c473 -237 549 -273 549 -259 0 3
24 114 54 248 72 320 297 1384 298 1406 0 9 -30 116 -67 236 l-67 219 14 51
15 51 155 3 c108 2 159 6 166 15 5 6 40 71 77 142 37 72 71 135 75 140 16 21
110 213 110 224 0 6 -13 11 -28 11 -40 0 -52 17 -52 77 0 42 -4 55 -17 60 -23
8 -33 23 -33 49 0 25 -11 30 -95 48 -75 15 -135 14 -203 -4 -74 -20 -78 -13
-83 138 -1 37 -4 72 -6 79 -6 14 -50 -6 -213 -96 -63 -35 -133 -74 -155 -85
-181 -97 -215 -121 -233 -161 -44 -103 -101 -211 -116 -224 -15 -13 -28 -4
-127 97 -60 62 -109 116 -109 122 0 5 14 31 30 57 125 197 88 618 -86 992
-102 217 -191 337 -286 383 -107 52 -210 69 -428 72 -110 2 -201 2 -202 1z"/>
</g>
</svg>
